<svg height="682pt" viewBox="-25 -21 682 682.66669" width="682pt" xmlns="http://www.w3.org/2000/svg"><path d="m65.839844 162.308594c-14.691406-55.378906 48.800781-95.257813 92.519531-62.707032 5.882813 4.378907 14.339844.773438 15.234375-6.523437 5.152344-42.136719 41.105469-73.90625 83.625-73.90625 38.613281 0 72.195312 26.101563 81.667969 63.476563.628906 2.484374 2.226562 4.609374 4.433593 5.90625 5.683594 3.34375 8.203126-.726563 20.316407-.726563 33.375 0 58.769531 35.367187 44.605469 68.234375-2.722657 6.316406 1.914062 13.375 8.804687 13.375h52.65625c10.152344 0 18.414063 8.261719 18.414063 18.414062 0 10.152344-8.261719 18.40625-18.414063 18.40625h-353.636719c-8.21875 0-21.726562-4.949218-33.375-16.015624-3.839844-3.644532-9.90625-3.488282-13.550781.347656-3.648437 3.839844-3.492187 9.902344.347656 13.550781 13.613281 12.933594 31.898438 21.289063 46.578125 21.289063h353.636719c20.722656 0 37.578125-16.855469 37.578125-37.578126 0-20.722656-16.855469-37.582031-37.578125-37.582031h-39.632813c9.046876-44.101562-28.417968-87.101562-75.214843-81.042969-14.363281-41.183593-53.300781-69.226562-97.636719-69.226562-47.3125 0-88 32.054688-99.910156 76.585938-58.703125-28.773438-127.488282 24.710937-109.992188 90.640624 1.355469 5.117188 6.605469 8.164063 11.722656 6.804688 5.117188-1.355469 8.160157-6.605469 6.800782-11.722656zm0 0"/><path d="m148.496094 255.335938c-4.722656-2.390626-10.488282-.5-12.878906 4.21875l-19.1875 37.886718c-2.390626 4.722656-.5 10.488282 4.226562 12.875 4.746094 2.410156 10.5.480469 12.878906-4.21875l19.183594-37.878906c2.390625-4.722656.5-10.492188-4.222656-12.882812zm0 0"/><path d="m237.671875 255.347656c-4.710937-2.402344-10.484375-.527344-12.890625 4.1875l-19.292969 37.882813c-2.402343 4.714843-.527343 10.488281 4.191407 12.890625 4.738281 2.410156 10.5.507812 12.890624-4.191406l19.296876-37.878907c2.402343-4.71875.519531-10.488281-4.195313-12.890625zm0 0"/><path d="m311.605469 306.136719 19.40625-37.878907c2.410156-4.710937.546875-10.488281-4.164063-12.902343-4.707031-2.410157-10.484375-.550781-12.902344 4.160156l-19.398437 37.882813c-3.277344 6.398437 1.414063 13.953124 8.523437 13.953124 3.484376 0 6.84375-1.902343 8.535157-5.214843zm0 0"/><path d="m403.117188 259.496094-19.511719 37.882812c-2.429688 4.707032-.578125 10.488282 4.128906 12.910156 4.726563 2.4375 10.5.554688 12.910156-4.132812l19.511719-37.878906c2.421875-4.707032.570312-10.488282-4.128906-12.910156-4.707032-2.429688-10.488282-.578126-12.910156 4.128906zm0 0"/><path d="m90.84375 369.179688c-4.71875-2.390626-10.488281-.503907-12.878906 4.21875l-19.183594 37.886718c-3.25 6.414063 1.484375 13.914063 8.542969 13.914063 3.496093 0 6.871093-1.921875 8.558593-5.257813l19.1875-37.878906c2.390626-4.722656.5-10.492188-4.226562-12.882812zm0 0"/><path d="m179.691406 369.1875c-4.710937-2.398438-10.480468-.523438-12.890625 4.191406l-19.289062 37.886719c-2.402344 4.714844-.527344 10.488281 4.191406 12.890625 4.738281 2.410156 10.5.5 12.890625-4.195312l19.292969-37.882813c2.402343-4.714844.523437-10.484375-4.195313-12.890625zm0 0"/><path d="m268.546875 369.199219c-4.714844-2.410157-10.488281-.550781-12.90625 4.160156l-19.398437 37.882813c-2.414063 4.710937-.554688 10.484374 4.160156 12.898437 4.738281 2.429687 10.5.523437 12.898437-4.160156l19.40625-37.878907c2.410157-4.714843.546875-10.492187-4.160156-12.902343zm0 0"/><path d="m333.480469 425.199219c3.476562 0 6.832031-1.898438 8.53125-5.199219l19.511719-37.882812c2.421874-4.703126.570312-10.484376-4.136719-12.90625-4.699219-2.421876-10.480469-.578126-12.902344 4.128906l-19.511719 37.878906c-3.3125 6.433594 1.433594 13.980469 8.507813 13.980469zm0 0"/><path d="m33.195312 483.023438c-4.722656-2.394532-10.488281-.503907-12.882812 4.222656l-19.183594 37.878906c-3.246094 6.417969 1.484375 13.917969 8.542969 13.917969 3.503906 0 6.871094-1.917969 8.5625-5.253907l19.183594-37.886718c2.390625-4.722656.503906-10.488282-4.222657-12.878906zm0 0"/><path d="m121.714844 483.03125c-4.710938-2.402344-10.488282-.523438-12.890625 4.195312l-19.292969 37.882813c-2.402344 4.714844-.523438 10.484375 4.195312 12.890625 4.710938 2.398438 10.488282.519531 12.890626-4.195312l19.292968-37.882813c2.402344-4.714844.519532-10.488281-4.195312-12.890625zm0 0"/><path d="m210.238281 483.042969c-4.710937-2.414063-10.488281-.550781-12.902343 4.160156l-19.402344 37.882813c-2.410156 4.714843-.550782 10.484374 4.160156 12.902343 4.742188 2.425781 10.503906.519531 12.90625-4.164062l19.398438-37.882813c2.414062-4.710937.546874-10.480468-4.160157-12.898437zm0 0"/><path d="m274.847656 539.042969c3.476563 0 6.832032-1.894531 8.53125-5.195313l19.511719-37.886718c2.421875-4.707032.570313-10.484376-4.128906-12.910157-4.707031-2.421875-10.488281-.570312-12.910157 4.132813l-19.511718 37.886718c-3.3125 6.421876 1.433594 13.972657 8.507812 13.972657zm0 0"/><path d="m471.835938 451.050781h-22.308594c-5.296875 0-9.585938 4.292969-9.585938 9.582031 0 5.296876 4.289063 9.585938 9.585938 9.585938h22.308594c11.613281 0 21.058593 9.449219 21.058593 21.0625s-9.445312 21.058594-21.058593 21.058594h-141.582032c-5.296875 0-9.585937 4.292968-9.585937 9.582031 0 5.296875 4.289062 9.585937 9.585937 9.585937h141.582032c22.183593 0 40.230468-18.046874 40.230468-40.226562 0-22.183594-18.046875-40.230469-40.230468-40.230469zm0 0"/><path d="m597.152344 563.984375h-68.441406c-5.292969 0-9.585938 4.289063-9.585938 9.578125 0 5.300781 4.292969 9.585938 9.585938 9.585938h68.441406c8.464844 0 15.347656 6.890624 15.347656 15.351562s-6.882812 15.347656-15.347656 15.347656h-18.152344c-5.296875 0-9.585938 4.292969-9.585938 9.585938 0 5.292968 4.289063 9.582031 9.585938 9.582031h18.152344c19.035156 0 34.519531-15.480469 34.519531-34.515625 0-19.03125-15.488281-34.515625-34.519531-34.515625zm0 0"/><path d="m490.371094 563.984375h-255.589844c-5.292969 0-9.585938 4.289063-9.585938 9.578125 0 5.300781 4.292969 9.585938 9.585938 9.585938h255.589844c5.296875 0 9.585937-4.285157 9.585937-9.585938 0-5.289062-4.289062-9.578125-9.585937-9.578125zm0 0"/><path d="m431.390625 620.828125h-51.117187c-5.292969 0-9.585938 4.292969-9.585938 9.585937 0 5.292969 4.292969 9.585938 9.585938 9.585938h51.117187c5.300781 0 9.585937-4.292969 9.585937-9.585938 0-5.292968-4.285156-9.585937-9.585937-9.585937zm0 0"/><path d="m341.9375 620.828125h-17.882812c-5.300782 0-9.585938 4.292969-9.585938 9.585937 0 5.292969 4.285156 9.585938 9.585938 9.585938h17.882812c5.292969 0 9.585938-4.292969 9.585938-9.585938 0-5.292968-4.292969-9.585937-9.585938-9.585937zm0 0"/></svg>